<mxfile host="app.diagrams.net" modified="2023-08-24T08:36:53.528Z" agent="Mozilla/5.0 (Macintosh; Intel Mac OS X 10_15_7) AppleWebKit/537.36 (KHTML, like Gecko) Chrome/116.0.0.0 Safari/537.36" etag="NGPU08MFNwIsaZ8InS5M" version="21.6.8" type="device">
  <diagram name="Page-1" id="nE4vAZmbvT6s7i18-Kfv">
    <mxGraphModel dx="470" dy="505" grid="1" gridSize="10" guides="1" tooltips="1" connect="1" arrows="1" fold="1" page="1" pageScale="1" pageWidth="850" pageHeight="1100" math="0" shadow="0">
      <root>
        <mxCell id="0" />
        <mxCell id="1" parent="0" />
        <mxCell id="ezHg60Rdnu6_k9bEsoOD-1" value="物理机" style="rounded=0;whiteSpace=wrap;html=1;" vertex="1" parent="1">
          <mxGeometry x="180" y="290" width="60" height="130" as="geometry" />
        </mxCell>
        <mxCell id="ezHg60Rdnu6_k9bEsoOD-6" value="Open Stack 划分虚拟机" style="rounded=0;whiteSpace=wrap;html=1;" vertex="1" parent="1">
          <mxGeometry x="180" y="190" width="380" height="60" as="geometry" />
        </mxCell>
        <mxCell id="ezHg60Rdnu6_k9bEsoOD-7" value="物理机" style="rounded=0;whiteSpace=wrap;html=1;" vertex="1" parent="1">
          <mxGeometry x="260" y="290" width="60" height="130" as="geometry" />
        </mxCell>
        <mxCell id="ezHg60Rdnu6_k9bEsoOD-8" value="物理机" style="rounded=0;whiteSpace=wrap;html=1;" vertex="1" parent="1">
          <mxGeometry x="340" y="290" width="60" height="130" as="geometry" />
        </mxCell>
        <mxCell id="ezHg60Rdnu6_k9bEsoOD-9" value="物理机" style="rounded=0;whiteSpace=wrap;html=1;" vertex="1" parent="1">
          <mxGeometry x="420" y="290" width="60" height="130" as="geometry" />
        </mxCell>
        <mxCell id="ezHg60Rdnu6_k9bEsoOD-10" value="物理机" style="rounded=0;whiteSpace=wrap;html=1;" vertex="1" parent="1">
          <mxGeometry x="500" y="290" width="60" height="130" as="geometry" />
        </mxCell>
      </root>
    </mxGraphModel>
  </diagram>
</mxfile>
